<svg xmlns="http://www.w3.org/2000/svg" width="33" height="32">
    <path fill-rule="evenodd" fill="#005BAB" d="M16.456 31.75C7.688 31.75.581 24.642.581 15.875.581 7.107 7.688 0 16.456 0c8.767 0 15.875 7.107 15.875 15.875 0 8.767-7.108 15.875-15.875 15.875zm13.056-21.39a14.139 14.139 0 0 0-3.037-4.504 14.305 14.305 0 0 0-2.098-1.732 14.132 14.132 0 0 0-7.921-2.418 14.1 14.1 0 0 0-7.921 2.418 14.26 14.26 0 0 0-5.136 6.236 14.1 14.1 0 0 0-1.113 5.515 14.132 14.132 0 0 0 2.419 7.921 14.254 14.254 0 0 0 6.236 5.135c.854.362 1.748.639 2.657.825a14.29 14.29 0 0 0 5.715 0 14.059 14.059 0 0 0 5.064-2.131 14.298 14.298 0 0 0 3.829-3.829 14.059 14.059 0 0 0 2.131-5.064 14.28 14.28 0 0 0 0-5.715 14.027 14.027 0 0 0-.825-2.657zm-6.794 11.777a.956.956 0 0 1-1.355 0l-4.907-4.908-4.908 4.908a.954.954 0 0 1-.677.28.958.958 0 0 1-.677-1.635l4.907-4.907-4.907-4.908a.957.957 0 1 1 1.354-1.354l4.908 4.907 4.907-4.907a.958.958 0 0 1 1.355 1.354l-4.908 4.908 4.908 4.907a.958.958 0 0 1 0 1.355z"/>
</svg>
