<svg xmlns="http://www.w3.org/2000/svg" width="17" height="19">
    <path fill-rule="evenodd" fill="#2F77C9" d="m16.21 16.987-4.103-5.11a6.971 6.971 0 0 0 1.884-4.052 6.956 6.956 0 0 0-1.492-5.122A6.935 6.935 0 0 0 7.823.136a6.95 6.95 0 0 0-5.121 1.492A6.952 6.952 0 0 0 .136 6.306a6.937 6.937 0 0 0 .222 2.663 6.917 6.917 0 0 0 1.27 2.459 6.911 6.911 0 0 0 2.125 1.774 6.96 6.96 0 0 0 3.319.835 6.917 6.917 0 0 0 3.595-1.004l4.103 5.109a.922.922 0 1 0 1.44-1.155zM2.88 10.423a5.372 5.372 0 0 1 .827-7.542 5.317 5.317 0 0 1 3.941-1.149 5.328 5.328 0 0 1 3.599 1.976 5.372 5.372 0 0 1-.827 7.542 5.367 5.367 0 0 1-7.54-.827z"/>
</svg>
